<svg width="36" height="36" viewBox="0 0 36 36" fill="none" xmlns="http://www.w3.org/2000/svg">
<path d="M18 0H5.4C2.412 0 0 3.015 0 6.75V24.75C0 28.485 2.412 31.5 5.4 31.5L3.6 33.75V36H5.4L9 31.4325L12.6 31.5V20.25H3.6V4.455L19.8 4.5V9H23.4V6.75C23.4 3.015 20.988 0 18 0ZM5.4 22.5C6.39 22.5 7.2 23.5125 7.2 24.75C7.2 25.9875 6.39 27 5.4 27C4.41 27 3.6 25.9875 3.6 24.75C3.6 23.5125 4.41 22.5 5.4 22.5ZM33.426 12.735C33.174 11.835 32.49 11.25 31.68 11.25H18.738C17.91 11.25 17.244 11.835 16.974 12.735L14.4 21.9825L14.418 34.38C14.418 35.235 14.976 36 15.66 36H16.776C17.46 36 18 35.145 18 34.29V31.5H32.4V34.29C32.4 35.145 32.958 36 33.642 36H34.74C35.424 36 35.982 35.235 35.982 34.38L36 31.2975V21.9825L33.426 12.735ZM18.738 13.5H31.68L33.534 20.25H16.884L18.738 13.5ZM18 27C17.01 27 16.2 25.9875 16.2 24.75C16.2 23.5125 17.01 22.5 18 22.5C18.99 22.5 19.8 23.5125 19.8 24.75C19.8 25.9875 18.99 27 18 27ZM32.4 27C31.41 27 30.6 25.9875 30.6 24.75C30.6 23.5125 31.41 22.5 32.4 22.5C33.39 22.5 34.2 23.5125 34.2 24.75C34.2 25.9875 33.39 27 32.4 27Z" fill="#333333"/>
</svg>
