<svg width="37" height="37" viewBox="0 0 37 37" fill="none" xmlns="http://www.w3.org/2000/svg">
<path d="M31.8873 20.2625C31.9623 19.7 31.9998 19.1188 31.9998 18.5C31.9998 17.9 31.9623 17.3 31.8686 16.7375L35.6748 13.775C36.0123 13.5125 36.1061 13.0063 35.8998 12.6313L32.2998 6.40625C32.0748 5.99375 31.6061 5.8625 31.1936 5.99375L26.7123 7.79375C25.7748 7.08125 24.7811 6.48125 23.6748 6.03125L22.9998 1.26875C22.9248 0.81875 22.5498 0.5 22.0998 0.5H14.8998C14.4498 0.5 14.0936 0.81875 14.0186 1.26875L13.3436 6.03125C12.2373 6.48125 11.2248 7.1 10.3061 7.79375L5.82484 5.99375C5.41234 5.84375 4.94359 5.99375 4.71859 6.40625L1.13734 12.6313C0.91234 13.025 0.987339 13.5125 1.36234 13.775L5.16859 16.7375C5.07484 17.3 4.99984 17.9188 4.99984 18.5C4.99984 19.0813 5.03734 19.7 5.13109 20.2625L1.32484 23.225C0.987339 23.4875 0.89359 23.9938 1.09984 24.3688L4.69984 30.5938C4.92484 31.0063 5.39359 31.1375 5.80609 31.0063L10.2873 29.2063C11.2248 29.9188 12.2186 30.5188 13.3248 30.9688L13.9998 35.7313C14.0936 36.1813 14.4498 36.5 14.8998 36.5H22.0998C22.5498 36.5 22.9248 36.1813 22.9811 35.7313L23.6561 30.9688C24.7623 30.5188 25.7748 29.9188 26.6936 29.2063L31.1748 31.0063C31.5873 31.1563 32.0561 31.0063 32.2811 30.5938L35.8811 24.3688C36.1061 23.9563 36.0123 23.4875 35.6561 23.225L31.8873 20.2625ZM18.4998 25.25C14.7873 25.25 11.7498 22.2125 11.7498 18.5C11.7498 14.7875 14.7873 11.75 18.4998 11.75C22.2123 11.75 25.2498 14.7875 25.2498 18.5C25.2498 22.2125 22.2123 25.25 18.4998 25.25Z" fill="#333333"/>
</svg>
